<svg width="19" height="21" viewBox="0 0 19 21" fill="none" xmlns="http://www.w3.org/2000/svg">
<circle cx="2.66077" cy="2.66077" r="2.66077" transform="matrix(-1 0 0 1 11.835 7.84668)" stroke="#2F667F" stroke-width="1.33038"/>
<path d="M13.1653 4.24352L12.8327 4.81959L12.8327 4.81959L13.1653 4.24352ZM13.1653 16.771L12.8327 16.1949L12.8327 16.1949L13.1653 16.771ZM5.18304 16.771L5.51563 16.1949L5.51563 16.1949L5.18304 16.771ZM5.18304 4.24352L5.51563 4.81959L5.51563 4.81959L5.18304 4.24352ZM6.44507 2.53848L5.797 2.38853L5.797 2.38853L6.44507 2.53848ZM6.9916 1.90873L6.82843 1.26386L6.9916 1.90873ZM0.798293 7.58313L0.170271 7.36388L0.798293 7.58313ZM3.24229 16.4855L3.08958 15.838L3.24229 16.4855ZM2.43618 16.2751L1.93104 16.7079L2.43618 16.2751ZM6.99168 19.1061L7.15485 18.4612L6.99168 19.1061ZM6.44513 18.4763L5.79704 18.6262L6.44513 18.4763ZM11.9033 18.4762L12.5513 18.6261L11.9033 18.4762ZM11.3567 19.1061L11.1935 18.4612L11.3567 19.1061ZM15.9121 16.275L16.4172 16.7078L15.9121 16.275ZM15.106 16.4854L14.9533 17.1329L15.106 16.4854ZM17.55 7.58313L18.178 7.36389L17.55 7.58313ZM17.2394 8.45288L17.6624 8.96625L17.2394 8.45288ZM1.10883 12.5619L1.53182 13.0753L1.10883 12.5619ZM15.9119 4.73948L15.4067 5.1723L15.9119 4.73948ZM3.24245 4.52909L3.08978 5.17652L3.08978 5.17652L3.24245 4.52909ZM17.2394 12.5619L17.6624 12.0486L17.2394 12.5619ZM17.55 13.4317L18.178 13.6509L17.55 13.4317ZM11.9033 2.5385L11.2552 2.68846L11.9033 2.5385ZM11.3568 1.90876L11.52 1.2639L11.3568 1.90876ZM11.2552 2.68846C11.4555 3.55397 12.0015 4.33968 12.8327 4.81959L13.4979 3.66744C12.9992 3.37947 12.672 2.90985 12.5514 2.38854L11.2552 2.68846ZM12.8327 4.81959C13.5963 5.26045 14.4636 5.36397 15.2585 5.17654L14.9532 3.88167C14.475 3.99441 13.9565 3.93221 13.4979 3.66744L12.8327 4.81959ZM18.178 7.36389C17.7828 6.23188 17.1805 5.19773 16.417 4.30666L15.4067 5.1723C16.0644 5.93978 16.5823 6.82959 16.9219 7.80237L18.178 7.36389ZM16.9347 10.5074C16.9347 9.88713 17.2169 9.33333 17.6624 8.96625L16.8164 7.9395C16.0774 8.54845 15.6043 9.47296 15.6043 10.5074H16.9347ZM17.6624 12.0486C17.2169 11.6815 16.9347 11.1277 16.9347 10.5074H15.6043C15.6043 11.5418 16.0774 12.4664 16.8164 13.0753L17.6624 12.0486ZM16.4172 16.7078C17.1806 15.8169 17.7828 14.7828 18.178 13.6509L16.9219 13.2124C16.5824 14.1851 16.0645 15.0748 15.407 15.8423L16.4172 16.7078ZM13.4979 17.3471C13.9566 17.0823 14.4751 17.0201 14.9533 17.1329L15.2587 15.838C14.4637 15.6505 13.5964 15.754 12.8327 16.1949L13.4979 17.3471ZM12.5513 18.6261C12.6719 18.1048 12.9991 17.6351 13.4979 17.3471L12.8327 16.1949C12.0014 16.6749 11.4554 17.4607 11.2552 18.3263L12.5513 18.6261ZM9.17413 20.0418C9.98274 20.0418 10.7688 19.941 11.5199 19.7509L11.1935 18.4612C10.5482 18.6245 9.87179 18.7114 9.17413 18.7114V20.0418ZM6.82851 19.751C7.5796 19.941 8.36556 20.0418 9.17413 20.0418V18.7114C8.4765 18.7114 7.80013 18.6245 7.15485 18.4612L6.82851 19.751ZM4.85044 17.3471C5.34929 17.6351 5.67646 18.1048 5.79704 18.6262L7.09321 18.3264C6.893 17.4607 6.34698 16.6749 5.51563 16.1949L4.85044 17.3471ZM3.395 17.1329C3.87324 17.0201 4.3918 17.0823 4.85044 17.3471L5.51563 16.1949C4.75195 15.754 3.88458 15.6505 3.08958 15.838L3.395 17.1329ZM0.170271 13.6509C0.565417 14.7828 1.16763 15.8169 1.93104 16.7079L2.94132 15.8423C2.28378 15.0748 1.76588 14.1851 1.42632 13.2124L0.170271 13.6509ZM1.41356 10.5074C1.41356 11.1277 1.13135 11.6815 0.68584 12.0486L1.53182 13.0753C2.2709 12.4664 2.74394 11.5418 2.74394 10.5074H1.41356ZM0.68584 8.96625C1.13135 9.33333 1.41356 9.88713 1.41356 10.5074H2.74394C2.74394 9.47296 2.2709 8.54844 1.53182 7.93949L0.68584 8.96625ZM1.9313 4.30663C1.16776 5.1977 0.565461 6.23187 0.170271 7.36388L1.42632 7.80237C1.76592 6.82958 2.2839 5.93976 2.94153 5.17228L1.9313 4.30663ZM4.85044 3.66744C4.39183 3.93222 3.87333 3.99442 3.39512 3.88165L3.08978 5.17652C3.88473 5.36398 4.75202 5.26046 5.51563 4.81959L4.85044 3.66744ZM5.797 2.38853C5.67638 2.90984 5.34923 3.37947 4.85044 3.66744L5.51563 4.81959C6.34688 4.33967 6.89287 3.55396 7.09314 2.68843L5.797 2.38853ZM9.17413 0.972992C8.36554 0.972992 7.57954 1.0738 6.82843 1.26386L7.15478 2.55359C7.80008 2.39031 8.47648 2.30338 9.17413 2.30338V0.972992ZM11.52 1.2639C10.7688 1.07381 9.98277 0.972992 9.17413 0.972992V2.30338C9.87182 2.30338 10.5483 2.39032 11.1936 2.55363L11.52 1.2639ZM7.09314 2.68843C7.10699 2.62859 7.13045 2.58638 7.14865 2.56424C7.16428 2.54522 7.16707 2.55048 7.15478 2.55359L6.82843 1.26386C6.21538 1.41898 5.89883 1.94842 5.797 2.38853L7.09314 2.68843ZM1.53182 7.93949C1.47782 7.895 1.44643 7.84687 1.43384 7.81468C1.42325 7.7876 1.43105 7.78881 1.42632 7.80237L0.170271 7.36388C-0.0656589 8.0397 0.299884 8.64825 0.68584 8.96625L1.53182 7.93949ZM3.08958 15.838C3.02995 15.8521 2.98182 15.8498 2.95391 15.8433C2.92991 15.8377 2.93321 15.8328 2.94132 15.8423L1.93104 16.7079C2.34174 17.1872 2.95547 17.2366 3.395 17.1329L3.08958 15.838ZM7.15485 18.4612C7.16714 18.4643 7.16435 18.4696 7.14872 18.4506C7.13051 18.4284 7.10705 18.3862 7.09321 18.3264L5.79704 18.6262C5.89884 19.0663 6.2154 19.5958 6.82851 19.751L7.15485 18.4612ZM11.2552 18.3263C11.2413 18.3862 11.2179 18.4284 11.1997 18.4506C11.184 18.4696 11.1812 18.4643 11.1935 18.4612L11.5199 19.7509C12.133 19.5958 12.4495 19.0663 12.5513 18.6261L11.2552 18.3263ZM15.407 15.8423C15.4151 15.8328 15.4184 15.8377 15.3944 15.8433C15.3665 15.8498 15.3183 15.8521 15.2587 15.838L14.9533 17.1329C15.3928 17.2365 16.0065 17.1872 16.4172 16.7078L15.407 15.8423ZM16.9219 7.80237C16.9172 7.78881 16.925 7.7876 16.9144 7.81468C16.9018 7.84687 16.8704 7.895 16.8164 7.9395L17.6624 8.96625C18.0484 8.64825 18.4139 8.0397 18.178 7.36389L16.9219 7.80237ZM1.42632 13.2124C1.43105 13.226 1.42325 13.2272 1.43384 13.2001C1.44643 13.1679 1.47782 13.1198 1.53182 13.0753L0.68584 12.0486C0.299884 12.3666 -0.0656587 12.9751 0.170271 13.6509L1.42632 13.2124ZM15.2585 5.17654C15.3181 5.16248 15.3662 5.1648 15.3941 5.17129C15.4181 5.17688 15.4148 5.18176 15.4067 5.1723L16.417 4.30666C16.0063 3.82741 15.3927 3.77804 14.9532 3.88167L15.2585 5.17654ZM2.94153 5.17228C2.93343 5.18173 2.93013 5.17686 2.95413 5.17127C2.98203 5.16477 3.03016 5.16246 3.08978 5.17652L3.39512 3.88165C2.95562 3.77801 2.34197 3.82736 1.9313 4.30663L2.94153 5.17228ZM16.8164 13.0753C16.8704 13.1198 16.9018 13.1679 16.9144 13.2001C16.925 13.2272 16.9172 13.226 16.9219 13.2124L18.178 13.6509C18.4139 12.9751 18.0484 12.3666 17.6624 12.0486L16.8164 13.0753ZM12.5514 2.38854C12.4495 1.94845 12.133 1.41903 11.52 1.2639L11.1936 2.55363C11.1813 2.55052 11.1841 2.54526 11.1997 2.56427C11.2179 2.58641 11.2414 2.62862 11.2552 2.68846L12.5514 2.38854Z" fill="#2F667F"/>
</svg>
